<svg class="layerfires" xmlns="http://www.w3.org/2000/svg" xmlns:xlink="http://www.w3.org/1999/xlink" version="1.1" id="Layer_1" x="0px" y="0px" width="100%" viewBox="0 0 740 769" enable-background="new 0 0 740 769" xml:space="preserve">




<path fill="#F56635" opacity="1.000000" stroke="none" d=" M1.000000,425.468628   C6.294974,424.583710 3.314841,419.993927 4.505504,417.532013   C5.728930,415.002380 4.976008,411.595764 5.751365,408.753937   C7.304017,403.063202 8.339647,397.434601 12.496389,392.379761   C17.020226,386.878510 18.659260,379.025909 23.116800,373.445129   C34.084175,359.714142 45.740974,346.489929 61.511482,337.800415   C64.645500,336.073578 67.527069,333.892670 70.561485,331.978943   C71.798737,331.198669 73.134705,329.970154 74.422745,329.973938   C82.393417,329.997375 87.471970,323.604065 94.343658,321.290283   C106.467445,317.208008 118.411987,312.360504 130.801605,309.362823   C144.626038,306.018036 158.889847,304.524719 172.911926,301.950623   C185.286942,299.678864 197.572784,296.923706 209.939667,294.604187   C214.124969,293.819214 218.445389,293.778473 222.689301,293.273621   C225.265549,292.967102 227.801834,292.332214 230.376129,292.000580   C246.105911,289.974213 261.830505,287.899658 277.581055,286.046844   C282.976593,285.412140 288.441132,285.355408 293.876923,285.092041   C294.216949,285.075592 294.581329,285.561493 296.283539,286.777466   C288.902893,287.988831 282.785004,288.977234 276.672699,289.999268   C261.307068,292.568573 245.898300,294.911194 230.592972,297.800995   C215.917084,300.571899 201.337189,303.859772 186.737503,307.023804   C167.835114,311.120361 148.830414,314.834717 130.109283,319.645630   C117.761215,322.818848 105.651215,327.165009 93.765076,331.828278   C78.084518,337.980164 63.239571,346.134064 50.578392,357.216888   C34.198517,371.554871 21.032494,388.502533 14.564595,409.853729   C9.317646,427.174469 8.763637,444.348358 14.275121,461.841400   C19.352486,477.956635 27.851561,491.746643 38.786572,504.499207   C48.812366,516.191406 60.644749,525.680481 73.593575,533.428650   C83.752724,539.507568 95.322273,543.234131 106.281723,547.967529   C109.114571,549.191040 112.439713,549.720581 114.774788,551.546021   C118.265572,554.275024 121.808060,555.432373 126.131470,555.089111   C127.308220,554.995667 128.601562,555.817078 129.771011,556.367981   C130.639069,556.776917 131.330032,557.747864 132.207977,557.921326   C142.764984,560.007141 153.304810,562.224548 163.926849,563.921143   C171.395264,565.113953 178.990051,565.502319 186.505661,566.433594   C187.249954,566.525818 187.835327,567.900513 188.494461,568.679932   C188.139618,569.010254 187.784790,569.340637 187.429947,569.670959   C188.478653,569.918213 189.527344,570.165466 190.576050,570.412659   C190.496063,570.942017 190.416077,571.471375 190.336090,572.000732   C185.374481,571.338440 180.247482,569.549194 175.485580,570.247925   C165.478256,571.716248 156.274719,568.235779 146.830048,566.754456   C137.120834,565.231750 127.020905,564.707825 117.986382,559.720398   C115.296288,558.235352 111.566612,558.770752 108.527336,557.745667   C104.876930,556.514526 101.342308,554.799866 98.006348,552.865540   C97.056625,552.314819 93.149223,552.694031 95.677948,549.427856   C94.369576,549.256226 92.932327,548.647522 91.775192,548.988708   C86.831078,550.446533 82.656548,547.971619 78.968056,545.805054   C72.174812,541.814880 66.021347,536.748413 59.498917,532.279907   C54.830502,529.081604 50.030441,526.070312 45.224308,523.079712   C40.526039,520.156250 36.161747,517.369141 34.344913,511.342163   C33.523563,508.617462 29.250195,507.114105 27.191378,504.538330   C24.276897,500.891968 21.805210,496.858643 19.428354,492.823395   C15.890678,486.817413 11.845845,480.951508 9.401558,474.501251   C6.494507,466.829803 5.069037,458.598724 2.949857,450.623871   C2.756468,449.896088 2.187157,449.268219 1.396207,448.796967   C1.000000,441.312408 1.000000,433.624847 1.000000,425.468628  z"></path>
<path fill="#F56635" opacity="1.000000" stroke="none" d=" M561.571533,0.999998   C563.247314,2.648951 564.146118,4.901842 565.795654,5.853939   C583.247253,15.926734 600.780701,25.859873 618.368591,35.693779   C632.388123,43.532509 646.868042,50.614025 660.472290,59.106945   C669.978577,65.041573 678.756897,72.340843 687.114502,79.859726   C695.149658,87.088516 702.657288,95.023033 709.587891,103.322899   C715.296082,110.158875 720.471069,117.630127 724.718079,125.452019   C731.212341,137.412811 736.483704,149.996033 738.861572,163.570206   C739.271545,165.911011 739.847412,168.222733 740.673340,170.273956   C741.000000,180.354233 741.000000,190.708450 741.000000,201.531342   C740.338196,202.570129 739.153137,203.088287 739.090576,203.717941   C737.237854,222.372986 728.243286,237.742020 716.069641,251.177261   C706.180603,262.091125 693.371338,269.328827 679.810486,274.922363   C661.859863,282.326630 642.880981,285.824585 623.839844,289.046570   C614.624390,290.605957 605.486938,292.622040 596.290527,294.301605   C593.718079,294.771454 591.036438,294.625000 588.450317,295.042786   C585.758179,295.477631 583.138000,296.343262 580.453918,296.847931   C578.625793,297.191650 576.743408,297.259766 574.881592,297.402649   C574.435303,297.436890 573.928040,297.116943 573.526794,297.231903   C560.270264,301.030609 547.415283,305.758148 535.912354,313.595703   C533.398804,315.308289 530.840820,316.955627 528.277527,318.650085   C527.731934,317.743500 527.214661,316.884003 526.203735,315.858887   C525.573547,315.580414 525.437012,315.467499 525.300537,315.354614   C526.133057,314.447510 526.869568,313.423126 527.812927,312.651398   C537.977417,304.335663 549.635315,298.883484 562.065857,294.947784   C568.370056,292.951691 574.599670,290.591156 581.033813,289.166962   C589.080383,287.385895 597.302612,286.398315 605.448975,285.068207   C605.328064,285.499847 605.207092,285.931519 605.086182,286.363159   C606.001770,286.702972 607.014465,287.472290 607.812439,287.291870   C609.401550,286.932617 610.872559,286.051300 612.393005,285.385345   C611.561218,285.170410 610.527100,284.903168 608.014893,284.253998   C613.508057,282.961060 617.624390,281.589020 621.845093,281.075836   C633.596741,279.647034 645.221619,278.103180 656.220276,273.156647   C661.479980,270.791138 667.451782,270.059204 672.865906,267.976166   C682.799744,264.154114 692.767700,260.142975 700.853271,252.960663   C710.957031,243.985565 719.023438,233.619659 725.460327,221.428101   C729.799683,213.209290 729.497681,204.945709 730.917175,196.665436   C734.020020,178.565659 730.369690,161.264664 723.168640,144.704071   C719.754211,136.851715 714.169800,129.805969 711.635803,121.744942   C708.917480,113.097504 701.620422,108.852776 696.641907,102.510201   C691.535767,96.005089 683.966553,91.437859 678.833374,84.948303   C673.693054,78.449806 666.112549,75.605988 660.427368,70.096931   C656.520142,66.310707 652.344543,62.182240 647.477722,60.135593   C637.614563,55.987831 629.401733,49.231087 620.036560,44.354359   C615.454529,41.968395 611.747192,37.955944 607.302246,35.238708   C602.778931,32.473534 597.625610,30.735226 593.117126,27.950115   C581.444214,20.739305 569.941162,13.250542 558.473999,5.714829   C557.292114,4.938139 556.808777,3.098295 556.000610,1.375881   C557.714355,1.000000 559.428711,1.000000 561.571533,0.999998  z"></path>
<path fill="#F56635" opacity="1.000000" stroke="none" d=" M494.458069,770.000000   C493.697845,765.780701 496.299622,765.914185 499.534912,764.401184   C505.057800,761.818604 511.367065,760.284302 516.154846,755.843323   C519.316589,752.910767 523.341553,750.906982 526.992615,748.506470   C527.400024,748.238586 528.251587,748.147095 528.288452,747.887451   C529.393799,740.095642 537.943604,736.169250 538.232666,727.624512   C538.441345,721.455444 541.622864,715.375793 541.758789,709.218323   C541.928040,701.551453 541.670227,693.362854 539.126343,686.287842   C536.404297,678.717529 531.247192,671.850647 526.325378,665.298462   C522.459961,660.152710 516.811218,656.353088 512.900818,651.232910   C507.930054,644.724365 500.181122,643.180969 493.923889,639.045898   C484.601105,632.884888 473.748444,630.648682 463.124451,628.075684   C453.421906,625.725830 443.558533,624.045837 433.793213,621.944458   C432.116913,621.583740 430.576660,620.590942 428.821564,618.612244   C430.072937,618.125427 431.364166,617.135071 432.569427,617.230469   C443.364563,618.084839 454.247162,618.512878 464.901917,620.282898   C477.038574,622.299133 489.278381,624.744812 499.922180,631.523010   C507.502319,636.350220 515.461060,640.894897 522.062866,646.876770   C533.270691,657.032043 542.165527,669.216553 546.974976,683.799194   C554.654968,707.085693 551.445557,728.850647 536.698303,748.599426   C532.146729,754.694763 526.182922,759.149536 519.038269,762.114929   C514.026367,764.195068 509.289917,766.938782 504.715210,769.693115   C501.638702,770.000000 498.277435,770.000000 494.458069,770.000000  z"></path>

<path fill="#F56635" opacity="1.000000" stroke="none" d=" M525.891113,315.887909   C525.564453,316.328217 525.056763,316.573944 524.549072,316.819641   C524.656189,316.453278 524.763306,316.086914 525.085449,315.537598   C525.437012,315.467499 525.573547,315.580414 525.891113,315.887909  z"></path>
</svg>